# Blender v2.78 (sub 0) OBJ File: 'shrooms.blend'
# www.blender.org
mtllib shroom1.mtl
o Shroom2_Cylinder.002
v -0.003716 0.465040 -0.018233
v 0.041836 0.000000 0.027224
v 0.060664 0.000000 -0.018232
v 0.041836 -0.000000 -0.063689
v -0.003621 -0.000000 -0.082518
v -0.049078 -0.000000 -0.063689
v -0.067907 -0.000000 -0.018232
v -0.049078 -0.000000 0.027224
v -0.003621 0.000000 0.046053
v 0.052338 0.438464 -0.018233
v 0.062937 0.412784 -0.018233
v 0.145196 0.364274 -0.018233
v 0.166953 0.333094 -0.018232
v 0.152863 0.316572 -0.018232
v 0.046176 0.305272 -0.018232
v 0.037582 0.160533 -0.018232
v 0.035211 0.438464 0.023116
v 0.040224 0.412784 0.036601
v 0.099099 0.365735 0.093111
v 0.115193 0.335194 0.106831
v 0.105584 0.318210 0.095977
v 0.030499 0.305272 0.019614
v 0.022699 0.160533 0.017697
v 0.035211 0.438464 -0.059581
v 0.040224 0.412784 -0.073066
v 0.099099 0.365735 -0.129576
v 0.115193 0.335194 -0.143296
v 0.105584 0.318210 -0.132442
v 0.030499 0.305272 -0.056079
v 0.022699 0.160533 -0.054162
v -0.006137 0.438464 -0.076708
v -0.014610 0.412784 -0.095779
v -0.012189 0.369262 -0.175697
v -0.009768 0.340265 -0.195099
v -0.008558 0.322163 -0.179750
v -0.007347 0.305272 -0.071755
v -0.013230 0.160533 -0.069044
v -0.047485 0.438464 -0.059581
v -0.069444 0.412784 -0.073066
v -0.123477 0.372788 -0.129576
v -0.134729 0.345336 -0.143296
v -0.122699 0.326117 -0.132442
v -0.045193 0.305272 -0.056079
v -0.049159 0.160533 -0.054162
v -0.064612 0.438464 -0.018233
v -0.092157 0.412784 -0.018233
v -0.169574 0.374249 -0.018232
v -0.186489 0.347437 -0.018232
v -0.169978 0.327754 -0.018232
v -0.060870 0.305272 -0.018232
v -0.064041 0.160533 -0.018232
v -0.047485 0.438464 0.023116
v -0.069444 0.412784 0.036601
v -0.123477 0.372788 0.093111
v -0.134729 0.345336 0.106831
v -0.122699 0.326117 0.095977
v -0.045193 0.305272 0.019614
v -0.049159 0.160533 0.017697
v -0.006137 0.438464 0.040242
v -0.014610 0.412784 0.059314
v -0.012189 0.369262 0.139231
v -0.009768 0.340265 0.158634
v -0.008557 0.322163 0.143285
v -0.007347 0.305272 0.035290
v -0.013230 0.160533 0.032579
vt 0.5014 0.9895
vt 0.5014 0.8671
vt 0.6229 0.8671
vt 0.5014 0.7448
vt 0.6229 0.7448
vt 0.5014 0.6224
vt 0.6229 0.6224
vt 0.5014 0.5000
vt 0.6229 0.5000
vt 0.5014 0.3776
vt 0.6229 0.3776
vt 0.5014 0.2552
vt 0.6229 0.2552
vt 0.5014 0.1329
vt 0.6229 0.1329
vt 0.5014 0.0105
vt 0.6229 0.0105
vt 0.6229 0.9895
vt 0.7444 0.8671
vt 0.7444 0.7448
vt 0.7444 0.6224
vt 0.7444 0.5000
vt 0.7444 0.3776
vt 0.7444 0.2552
vt 0.7444 0.1329
vt 0.7444 0.0105
vt 0.7444 0.9895
vt 0.8658 0.8671
vt 0.8658 0.7448
vt 0.8658 0.6224
vt 0.8658 0.5000
vt 0.8658 0.3776
vt 0.8658 0.2552
vt 0.8658 0.1329
vt 0.8658 0.0105
vt 0.8658 0.9895
vt 0.9873 0.8671
vt 0.9873 0.7448
vt 0.9873 0.6224
vt 0.9873 0.5000
vt 0.9873 0.3776
vt 0.9873 0.2552
vt 0.9873 0.1329
vt 0.9873 0.0105
vt 0.0155 0.9895
vt 0.0155 0.8671
vt 0.1370 0.8671
vt 0.0155 0.7448
vt 0.1370 0.7448
vt 0.0155 0.6224
vt 0.1370 0.6224
vt 0.0155 0.5000
vt 0.1370 0.5000
vt 0.0155 0.3776
vt 0.1370 0.3776
vt 0.0155 0.2552
vt 0.1370 0.2552
vt 0.0155 0.1329
vt 0.1370 0.1329
vt 0.0155 0.0105
vt 0.1370 0.0105
vt 0.1370 0.9895
vt 0.2585 0.8671
vt 0.2585 0.7448
vt 0.2585 0.6224
vt 0.2585 0.5000
vt 0.2585 0.3776
vt 0.2585 0.2552
vt 0.2585 0.1329
vt 0.2585 0.0105
vt 0.2585 0.9895
vt 0.3799 0.8671
vt 0.3799 0.7448
vt 0.3799 0.6224
vt 0.3799 0.5000
vt 0.3799 0.3776
vt 0.3799 0.2552
vt 0.3799 0.1329
vt 0.3799 0.0105
vt 0.3799 0.9895
vn 0.0170 0.9998 0.0000
vn 0.5428 0.6762 0.4981
vn 0.7622 0.6473 0.0000
vn 0.4775 0.7292 0.4901
vn 0.7153 0.6988 0.0000
vn 0.5033 0.7103 0.4920
vn 0.7041 0.7101 0.0000
vn 0.7061 -0.0453 0.7066
vn 0.9990 -0.0436 0.0000
vn 0.3723 -0.8426 0.3891
vn 0.5340 -0.8454 0.0000
vn 0.4441 -0.7687 0.4603
vn 0.6286 -0.7777 0.0000
vn 0.7002 0.0398 0.7128
vn 0.9991 0.0428 0.0000
vn 0.7083 0.1256 0.6946
vn 0.9898 0.1423 0.0000
vn 0.5428 0.6762 -0.4981
vn 0.4775 0.7292 -0.4901
vn 0.5033 0.7103 -0.4920
vn 0.7061 -0.0453 -0.7066
vn 0.3723 -0.8426 -0.3891
vn 0.4441 -0.7687 -0.4603
vn 0.7002 0.0398 -0.7128
vn 0.7083 0.1256 -0.6946
vn 0.0382 0.7418 -0.6695
vn -0.0065 0.7850 -0.6195
vn 0.0099 0.7102 -0.7039
vn 0.0006 -0.0497 -0.9987
vn -0.0178 -0.8354 -0.5494
vn -0.0159 -0.7464 -0.6653
vn -0.0125 0.0327 -0.9994
vn 0.0140 0.0844 -0.9963
vn -0.4103 0.7974 -0.4424
vn -0.4018 0.8240 -0.3993
vn -0.4944 0.7091 -0.5027
vn -0.7051 -0.0554 -0.7069
vn -0.4060 -0.8277 -0.3873
vn -0.4960 -0.7233 -0.4804
vn -0.7130 0.0258 -0.7007
vn -0.6993 0.0420 -0.7136
vn -0.5767 0.8169 0.0000
vn -0.5472 0.8370 0.0000
vn -0.7058 0.7083 0.0000
vn -0.9983 -0.0584 0.0000
vn -0.5660 -0.8244 0.0000
vn -0.7006 -0.7135 0.0000
vn -0.9997 0.0230 0.0000
vn -0.9997 0.0240 0.0000
vn -0.4103 0.7974 0.4424
vn -0.4018 0.8240 0.3993
vn -0.4944 0.7091 0.5027
vn -0.7051 -0.0554 0.7069
vn -0.4060 -0.8277 0.3873
vn -0.4960 -0.7233 0.4804
vn -0.7130 0.0258 0.7007
vn -0.6993 0.0420 0.7136
vn 0.0382 0.7418 0.6695
vn -0.0065 0.7850 0.6195
vn 0.0099 0.7102 0.7039
vn 0.0006 -0.0496 0.9987
vn -0.0178 -0.8354 0.5494
vn -0.0159 -0.7464 0.6653
vn -0.0125 0.0327 0.9994
vn 0.0140 0.0844 0.9963
usemtl Shroom
s 1
f 1/1/1 17/2/2 10/3/3
f 17/2/2 18/4/4 11/5/5 10/3/3
f 18/4/4 19/6/6 12/7/7 11/5/5
f 19/6/6 20/8/8 13/9/9 12/7/7
f 20/8/8 21/10/10 14/11/11 13/9/9
f 21/10/10 22/12/12 15/13/13 14/11/11
f 22/12/12 23/14/14 16/15/15 15/13/13
f 23/14/14 2/16/16 3/17/17 16/15/15
f 1/18/1 10/3/3 24/19/18
f 10/3/3 11/5/5 25/20/19 24/19/18
f 11/5/5 12/7/7 26/21/20 25/20/19
f 12/7/7 13/9/9 27/22/21 26/21/20
f 13/9/9 14/11/11 28/23/22 27/22/21
f 14/11/11 15/13/13 29/24/23 28/23/22
f 15/13/13 16/15/15 30/25/24 29/24/23
f 16/15/15 3/17/17 4/26/25 30/25/24
f 1/27/1 24/19/18 31/28/26
f 24/19/18 25/20/19 32/29/27 31/28/26
f 25/20/19 26/21/20 33/30/28 32/29/27
f 26/21/20 27/22/21 34/31/29 33/30/28
f 27/22/21 28/23/22 35/32/30 34/31/29
f 28/23/22 29/24/23 36/33/31 35/32/30
f 29/24/23 30/25/24 37/34/32 36/33/31
f 30/25/24 4/26/25 5/35/33 37/34/32
f 1/36/1 31/28/26 38/37/34
f 31/28/26 32/29/27 39/38/35 38/37/34
f 32/29/27 33/30/28 40/39/36 39/38/35
f 33/30/28 34/31/29 41/40/37 40/39/36
f 34/31/29 35/32/30 42/41/38 41/40/37
f 35/32/30 36/33/31 43/42/39 42/41/38
f 36/33/31 37/34/32 44/43/40 43/42/39
f 37/34/32 5/35/33 6/44/41 44/43/40
f 1/45/1 38/46/34 45/47/42
f 38/46/34 39/48/35 46/49/43 45/47/42
f 39/48/35 40/50/36 47/51/44 46/49/43
f 40/50/36 41/52/37 48/53/45 47/51/44
f 41/52/37 42/54/38 49/55/46 48/53/45
f 42/54/38 43/56/39 50/57/47 49/55/46
f 43/56/39 44/58/40 51/59/48 50/57/47
f 44/58/40 6/60/41 7/61/49 51/59/48
f 1/62/1 45/47/42 52/63/50
f 45/47/42 46/49/43 53/64/51 52/63/50
f 46/49/43 47/51/44 54/65/52 53/64/51
f 47/51/44 48/53/45 55/66/53 54/65/52
f 48/53/45 49/55/46 56/67/54 55/66/53
f 49/55/46 50/57/47 57/68/55 56/67/54
f 50/57/47 51/59/48 58/69/56 57/68/55
f 51/59/48 7/61/49 8/70/57 58/69/56
f 1/71/1 52/63/50 59/72/58
f 52/63/50 53/64/51 60/73/59 59/72/58
f 53/64/51 54/65/52 61/74/60 60/73/59
f 54/65/52 55/66/53 62/75/61 61/74/60
f 55/66/53 56/67/54 63/76/62 62/75/61
f 56/67/54 57/68/55 64/77/63 63/76/62
f 57/68/55 58/69/56 65/78/64 64/77/63
f 58/69/56 8/70/57 9/79/65 65/78/64
f 2/16/16 23/14/14 65/78/64 9/79/65
f 23/14/14 22/12/12 64/77/63 65/78/64
f 22/12/12 21/10/10 63/76/62 64/77/63
f 21/10/10 20/8/8 62/75/61 63/76/62
f 20/8/8 19/6/6 61/74/60 62/75/61
f 19/6/6 18/4/4 60/73/59 61/74/60
f 18/4/4 17/2/2 59/72/58 60/73/59
f 17/2/2 1/80/1 59/72/58
