# Blender v2.78 (sub 0) OBJ File: 'shrooms.blend'
# www.blender.org
mtllib shroom3.mtl
o Shroom8_Cylinder.008
v 0.483137 0.135534 0.371944
v 0.501429 0.000345 0.414973
v 0.519252 0.000345 0.371944
v 0.501429 0.000345 0.328914
v 0.458399 0.000345 0.311090
v 0.424007 0.000345 0.321512
v 0.397546 0.000345 0.371944
v 0.415369 0.000345 0.414973
v 0.458399 0.000345 0.432797
v 0.512042 0.128525 0.371944
v 0.555234 0.116267 0.371944
v 0.629138 0.093149 0.371944
v 0.637699 0.078854 0.371944
v 0.625617 0.068736 0.371944
v 0.527343 0.069157 0.371944
v 0.519252 0.038378 0.371944
v 0.500858 0.129722 0.399121
v 0.529477 0.118207 0.434304
v 0.581350 0.096749 0.487642
v 0.587104 0.082665 0.494438
v 0.579066 0.072242 0.484647
v 0.508675 0.070563 0.417140
v 0.501429 0.038378 0.414973
v 0.500858 0.129722 0.344766
v 0.529477 0.118207 0.309583
v 0.581350 0.096749 0.256245
v 0.587104 0.082665 0.249449
v 0.579066 0.072242 0.259240
v 0.508675 0.070563 0.326748
v 0.501429 0.038378 0.328914
v 0.473858 0.132611 0.333508
v 0.467293 0.122891 0.283753
v 0.471793 0.105001 0.232002
v 0.470771 0.091427 0.222392
v 0.472495 0.080269 0.236238
v 0.463607 0.073957 0.308027
v 0.458399 0.038378 0.311090
v 0.450113 0.135254 0.342859
v 0.419965 0.126455 0.297501
v 0.382689 0.111713 0.231249
v 0.377085 0.098484 0.222808
v 0.385306 0.086837 0.235693
v 0.427851 0.076651 0.318821
v 0.424007 0.038378 0.321512
v 0.435675 0.136696 0.371944
v 0.379351 0.129515 0.371944
v 0.302818 0.117729 0.371944
v 0.292212 0.104877 0.371944
v 0.307744 0.092679 0.371944
v 0.399871 0.078758 0.371944
v 0.397546 0.038378 0.371944
v 0.446858 0.135500 0.399121
v 0.405109 0.127574 0.434304
v 0.350607 0.114129 0.487642
v 0.342808 0.101066 0.494438
v 0.354295 0.089172 0.484647
v 0.418539 0.077352 0.417140
v 0.415369 0.038378 0.414973
v 0.473858 0.132611 0.410379
v 0.467293 0.122891 0.460134
v 0.469712 0.105158 0.508927
v 0.468689 0.091584 0.518538
v 0.470414 0.080426 0.504692
v 0.463607 0.073957 0.435860
v 0.458399 0.038378 0.432797
vt 0.5014 0.9895
vt 0.5014 0.8671
vt 0.6229 0.8671
vt 0.5014 0.7448
vt 0.6229 0.7448
vt 0.5014 0.6224
vt 0.6229 0.6224
vt 0.5014 0.5000
vt 0.6229 0.5000
vt 0.5014 0.3776
vt 0.6229 0.3776
vt 0.5014 0.2552
vt 0.6229 0.2552
vt 0.5014 0.1329
vt 0.6229 0.1329
vt 0.5014 0.0105
vt 0.6229 0.0105
vt 0.6229 0.9895
vt 0.7444 0.8671
vt 0.7444 0.7448
vt 0.7444 0.6224
vt 0.7444 0.5000
vt 0.7444 0.3776
vt 0.7444 0.2552
vt 0.7444 0.1329
vt 0.7444 0.0105
vt 0.7444 0.9895
vt 0.8658 0.8671
vt 0.8658 0.7448
vt 0.8658 0.6224
vt 0.8658 0.5000
vt 0.8658 0.3776
vt 0.8658 0.2552
vt 0.8658 0.1329
vt 0.8658 0.0105
vt 0.8658 0.9895
vt 0.9873 0.8671
vt 0.9873 0.7448
vt 0.9873 0.6224
vt 0.9873 0.5000
vt 0.9873 0.3776
vt 0.9873 0.2552
vt 0.9873 0.1329
vt 0.9873 0.0105
vt 0.0155 0.9895
vt 0.0155 0.8671
vt 0.1370 0.8671
vt 0.0155 0.7448
vt 0.1370 0.7448
vt 0.0155 0.6224
vt 0.1370 0.6224
vt 0.0155 0.5000
vt 0.1370 0.5000
vt 0.0155 0.3776
vt 0.1370 0.3776
vt 0.0155 0.2552
vt 0.1370 0.2552
vt 0.0155 0.1329
vt 0.1370 0.1329
vt 0.0155 0.0105
vt 0.1370 0.0105
vt 0.1370 0.9895
vt 0.2585 0.8671
vt 0.2585 0.7448
vt 0.2585 0.6224
vt 0.2585 0.5000
vt 0.2585 0.3776
vt 0.2585 0.2552
vt 0.2585 0.1329
vt 0.2585 0.0105
vt 0.2585 0.9895
vt 0.3799 0.8671
vt 0.3799 0.7448
vt 0.3799 0.6224
vt 0.3799 0.5000
vt 0.3799 0.3776
vt 0.3799 0.2552
vt 0.3799 0.1329
vt 0.3799 0.0105
vt 0.3799 0.9895
vn 0.1337 0.9910 0.0002
vn 0.2102 0.9704 0.1189
vn 0.2622 0.9650 0.0000
vn 0.2219 0.9596 0.1730
vn 0.2909 0.9568 0.0000
vn 0.4472 0.7518 0.4846
vn 0.6707 0.7417 0.0000
vn 0.6308 -0.1431 0.7626
vn 0.9880 -0.1546 0.0000
vn 0.2344 -0.9074 0.3486
vn 0.4080 -0.9130 0.0000
vn 0.3471 -0.8447 0.4073
vn 0.5017 -0.8650 0.0000
vn 0.6916 -0.1017 0.7150
vn 0.9915 -0.1299 0.0000
vn 0.7071 0.0000 0.7071
vn 1.0000 0.0000 0.0000
vn 0.2102 0.9704 -0.1189
vn 0.2228 0.9600 -0.1697
vn 0.4541 0.7523 -0.4772
vn 0.6388 -0.1436 -0.7558
vn 0.2399 -0.9079 -0.3438
vn 0.3477 -0.8450 -0.4063
vn 0.6916 -0.1017 -0.7150
vn 0.7071 0.0000 -0.7071
vn 0.1004 0.9817 -0.1620
vn 0.0918 0.9648 -0.2462
vn 0.1276 0.7862 -0.6046
vn 0.0916 -0.1416 -0.9857
vn -0.0178 -0.9144 -0.4043
vn -0.0165 -0.7853 -0.6189
vn 0.0322 -0.0457 -0.9984
vn 0.0492 0.0000 -0.9988
vn -0.0179 0.9929 -0.1172
vn -0.0569 0.9815 -0.1829
vn -0.2611 0.8023 -0.5368
vn -0.5134 -0.0984 -0.8524
vn -0.2622 -0.8964 -0.3575
vn -0.4412 -0.7552 -0.4848
vn -0.6484 0.0057 -0.7613
vn -0.6372 0.0000 -0.7707
vn -0.0697 0.9975 -0.0091
vn -0.1430 0.9896 -0.0157
vn -0.5608 0.8267 -0.0451
vn -0.9953 -0.0807 -0.0532
vn -0.4569 -0.8889 -0.0322
vn -0.6690 -0.7426 -0.0304
vn -0.9985 0.0293 -0.0452
vn -0.9990 0.0000 -0.0452
vn -0.0207 0.9933 0.1139
vn -0.0733 0.9821 0.1734
vn -0.3266 0.8095 0.4878
vn -0.6565 -0.0914 0.7487
vn -0.3012 -0.8938 0.3321
vn -0.4875 -0.7493 0.4482
vn -0.7154 0.0097 0.6986
vn -0.7071 0.0000 0.7071
vn 0.0924 0.9822 0.1633
vn 0.0716 0.9641 0.2557
vn 0.0638 0.7785 0.6244
vn -0.0111 -0.1306 0.9914
vn -0.0577 -0.9055 0.4204
vn -0.0499 -0.7923 0.6081
vn -0.0197 -0.0414 0.9989
vn 0.0000 0.0000 1.0000
usemtl Shroom
s 1
f 1/1/1 17/2/2 10/3/3
f 17/2/2 18/4/4 11/5/5 10/3/3
f 18/4/4 19/6/6 12/7/7 11/5/5
f 19/6/6 20/8/8 13/9/9 12/7/7
f 20/8/8 21/10/10 14/11/11 13/9/9
f 21/10/10 22/12/12 15/13/13 14/11/11
f 22/12/12 23/14/14 16/15/15 15/13/13
f 23/14/14 2/16/16 3/17/17 16/15/15
f 1/18/1 10/3/3 24/19/18
f 10/3/3 11/5/5 25/20/19 24/19/18
f 11/5/5 12/7/7 26/21/20 25/20/19
f 12/7/7 13/9/9 27/22/21 26/21/20
f 13/9/9 14/11/11 28/23/22 27/22/21
f 14/11/11 15/13/13 29/24/23 28/23/22
f 15/13/13 16/15/15 30/25/24 29/24/23
f 16/15/15 3/17/17 4/26/25 30/25/24
f 1/27/1 24/19/18 31/28/26
f 24/19/18 25/20/19 32/29/27 31/28/26
f 25/20/19 26/21/20 33/30/28 32/29/27
f 26/21/20 27/22/21 34/31/29 33/30/28
f 27/22/21 28/23/22 35/32/30 34/31/29
f 28/23/22 29/24/23 36/33/31 35/32/30
f 29/24/23 30/25/24 37/34/32 36/33/31
f 30/25/24 4/26/25 5/35/33 37/34/32
f 1/36/1 31/28/26 38/37/34
f 31/28/26 32/29/27 39/38/35 38/37/34
f 32/29/27 33/30/28 40/39/36 39/38/35
f 33/30/28 34/31/29 41/40/37 40/39/36
f 34/31/29 35/32/30 42/41/38 41/40/37
f 35/32/30 36/33/31 43/42/39 42/41/38
f 36/33/31 37/34/32 44/43/40 43/42/39
f 37/34/32 5/35/33 6/44/41 44/43/40
f 1/45/1 38/46/34 45/47/42
f 38/46/34 39/48/35 46/49/43 45/47/42
f 39/48/35 40/50/36 47/51/44 46/49/43
f 40/50/36 41/52/37 48/53/45 47/51/44
f 41/52/37 42/54/38 49/55/46 48/53/45
f 42/54/38 43/56/39 50/57/47 49/55/46
f 43/56/39 44/58/40 51/59/48 50/57/47
f 44/58/40 6/60/41 7/61/49 51/59/48
f 1/62/1 45/47/42 52/63/50
f 45/47/42 46/49/43 53/64/51 52/63/50
f 46/49/43 47/51/44 54/65/52 53/64/51
f 47/51/44 48/53/45 55/66/53 54/65/52
f 48/53/45 49/55/46 56/67/54 55/66/53
f 49/55/46 50/57/47 57/68/55 56/67/54
f 50/57/47 51/59/48 58/69/56 57/68/55
f 51/59/48 7/61/49 8/70/57 58/69/56
f 1/71/1 52/63/50 59/72/58
f 52/63/50 53/64/51 60/73/59 59/72/58
f 53/64/51 54/65/52 61/74/60 60/73/59
f 54/65/52 55/66/53 62/75/61 61/74/60
f 55/66/53 56/67/54 63/76/62 62/75/61
f 56/67/54 57/68/55 64/77/63 63/76/62
f 57/68/55 58/69/56 65/78/64 64/77/63
f 58/69/56 8/70/57 9/79/65 65/78/64
f 2/16/16 23/14/14 65/78/64 9/79/65
f 23/14/14 22/12/12 64/77/63 65/78/64
f 22/12/12 21/10/10 63/76/62 64/77/63
f 21/10/10 20/8/8 62/75/61 63/76/62
f 20/8/8 19/6/6 61/74/60 62/75/61
f 19/6/6 18/4/4 60/73/59 61/74/60
f 18/4/4 17/2/2 59/72/58 60/73/59
f 17/2/2 1/80/1 59/72/58
