# 3ds Max Wavefront OBJ Exporter v0.97b - (c)2007 guruware
# File Created: 24.03.2017 14:11:19

mtllib Church.mtl

#
# object Box010
#

v  -81.4954 195.8315 -2.5815
v  -78.5977 195.8315 -2.5815
v  -78.5977 195.8315 2.5921
v  -81.4954 195.8315 2.5921
v  -81.4954 239.9930 -2.5815
v  -81.4954 239.9930 2.5921
v  -78.5977 239.9930 2.5921
v  -78.5977 239.9930 -2.5815
v  -81.4954 231.3637 2.5921
v  -81.4954 231.3637 -2.5815
v  -78.5977 231.3637 2.5921
v  -78.5977 231.3637 -2.5815
v  -120.5397 0.0000 78.8606
v  -120.5397 0.0000 -0.5997
v  119.9400 0.0000 -0.5997
v  119.9400 0.0000 78.8606
v  -120.5397 0.0000 -80.0600
v  119.9400 0.0000 -80.0600
v  -120.5397 49.7751 78.8606
v  119.9400 49.7751 78.8606
v  119.9400 104.6715 -0.5997
v  -120.5397 104.6715 -0.5997
v  119.9400 49.7751 -80.0600
v  -120.5397 49.7751 -80.0600
v  -100.5729 70.3979 18.9311
v  -100.5729 70.3979 -20.9297
v  -59.8639 70.3979 -20.9297
v  -59.8639 70.3979 18.9311
v  -100.5729 160.2969 18.9311
v  -59.8639 160.2969 18.9311
v  -59.8639 160.2969 -20.9297
v  -100.5729 160.2969 -20.9297
v  -100.5729 190.4057 18.9311
v  -100.5729 190.4057 -20.9297
v  -59.8639 190.4057 -20.9297
v  -59.8639 190.4057 18.9311
v  -100.5729 195.8686 18.9311
v  -59.8639 195.8686 18.9311
v  -59.8639 195.8686 -20.9297
v  -100.5729 195.8686 -20.9297
v  -100.3803 160.3620 18.8545
v  -100.3803 160.3620 12.8575
v  -94.5332 160.3620 12.8575
v  -94.5332 160.3620 18.8545
v  -100.3803 190.6469 18.8545
v  -94.5332 190.6469 18.8545
v  -94.5332 190.6469 12.8575
v  -100.3803 190.6469 12.8575
v  -100.3803 160.3620 -14.7637
v  -100.3803 160.3620 -20.7607
v  -94.5332 160.3620 -20.7607
v  -94.5332 160.3620 -14.7637
v  -100.3803 190.6469 -14.7637
v  -94.5332 190.6469 -14.7637
v  -94.5332 190.6469 -20.7607
v  -100.3803 190.6469 -20.7607
v  -89.5652 168.4562 7.1368
v  -89.5652 168.4562 -9.1354
v  -70.8716 168.4562 -9.1354
v  -70.8716 168.4562 7.1368
v  -89.5652 181.6920 7.1368
v  -70.8716 181.6920 7.1368
v  -70.8716 181.6920 -9.1354
v  -89.5652 181.6920 -9.1354
v  -65.8638 160.3620 18.8545
v  -65.8638 160.3620 12.8575
v  -60.0167 160.3620 12.8575
v  -60.0167 160.3620 18.8545
v  -65.8638 190.6469 18.8545
v  -60.0167 190.6469 18.8545
v  -60.0167 190.6469 12.8575
v  -65.8638 190.6469 12.8575
v  -65.8638 160.3620 -14.9268
v  -65.8638 160.3620 -20.9238
v  -60.0167 160.3620 -20.9238
v  -60.0167 160.3620 -14.9268
v  -65.8638 190.6469 -14.9268
v  -60.0167 190.6469 -14.9268
v  -60.0167 190.6469 -20.9238
v  -65.8638 190.6469 -20.9238
v  -81.4867 227.7713 -10.2813
v  -78.6064 227.7713 -10.2813
v  -78.6064 224.5362 -10.2813
v  -81.4867 224.5362 -10.2813
v  -81.4867 227.7713 9.8412
v  -81.4867 224.5362 9.8412
v  -78.6064 224.5362 9.8412
v  -78.6064 227.7713 9.8412
v  -81.4867 224.5362 5.9092
v  -81.4867 227.7713 5.9092
v  -78.6064 224.5362 5.9092
v  -78.6064 227.7713 5.9092
v  -82.6702 180.7474 2.0371
v  -82.6702 180.7474 -2.9104
v  -77.4229 180.7474 -2.9104
v  -77.4229 180.7474 2.0371
v  -82.6702 190.4925 2.0371
v  -77.4229 190.4925 2.0371
v  -77.4229 190.4925 -2.9104
v  -82.6702 190.4925 -2.9104
# 100 vertices

vn 0.0000 -1.0000 -0.0000
vn 0.0000 1.0000 -0.0000
vn -1.0000 0.0000 -0.0000
vn -0.0000 0.0000 1.0000
vn 1.0000 0.0000 0.0000
vn 0.0000 0.0000 -1.0000
vn -0.0000 0.9830 0.1836
vn 0.0000 1.0000 0.0000
vn -0.0000 1.0000 -0.0000
vn 0.0000 0.9830 -0.1836
vn -0.0000 0.0000 -1.0000
vn 0.0000 0.0000 1.0000
vn 1.0000 0.0000 -0.0000
vn -1.0000 0.0000 0.0000
# 14 vertex normals

vt 0.9788 0.9599 0.0000
vt 0.9788 0.9495 0.0000
vt 0.9899 0.9495 0.0000
vt 0.9899 0.9599 0.0000
vt 0.9870 0.3619 0.0000
vt 0.9980 0.3619 0.0000
vt 0.9980 0.3724 0.0000
vt 0.9870 0.3724 0.0000
vt 0.6512 0.9839 0.0000
vt 0.6512 0.9950 0.0000
vt 0.6307 0.9950 0.0000
vt 0.6307 0.9839 0.0000
vt 0.9612 0.9495 0.0000
vt 0.9612 0.9599 0.0000
vt 0.9407 0.9599 0.0000
vt 0.9407 0.9495 0.0000
vt 0.9150 0.9667 0.0000
vt 0.9150 0.9778 0.0000
vt 0.8945 0.9778 0.0000
vt 0.8945 0.9667 0.0000
vt 0.9172 0.1346 0.0000
vt 0.9172 0.1450 0.0000
vt 0.8966 0.1450 0.0000
vt 0.8966 0.1346 0.0000
vt 0.6257 0.9950 0.0000
vt 0.6257 0.9839 0.0000
vt 0.9357 0.9599 0.0000
vt 0.9357 0.9495 0.0000
vt 0.8895 0.9778 0.0000
vt 0.8895 0.9667 0.0000
vt 0.8917 0.1450 0.0000
vt 0.8917 0.1346 0.0000
vt 0.0020 0.7014 0.0000
vt 0.0020 0.5316 0.0000
vt 0.8666 0.5316 0.0000
vt 0.8666 0.7014 0.0000
vt 0.0020 0.3619 0.0000
vt 0.8666 0.3619 0.0000
vt 0.8741 0.3473 0.0000
vt 0.0020 0.3473 0.0000
vt 0.0041 0.1711 0.0000
vt 0.8761 0.1711 0.0000
vt 0.0041 -0.0030 0.0000
vt 0.8761 -0.0030 0.0000
vt 0.0020 0.7204 0.0000
vt 0.8666 0.7204 0.0000
vt 0.8666 0.7491 0.0000
vt 0.0020 0.7491 0.0000
vt 0.0020 0.8897 0.0000
vt 0.1717 0.8897 0.0000
vt 0.1717 0.9502 0.0000
vt 0.0020 0.9184 0.0000
vt 0.3414 0.8897 0.0000
vt 0.3414 0.9184 0.0000
vt 0.0020 0.7653 0.0000
vt 0.8666 0.7653 0.0000
vt 0.8666 0.7941 0.0000
vt 0.0020 0.7941 0.0000
vt 0.0020 0.8117 0.0000
vt 0.1717 0.8117 0.0000
vt 0.1717 0.8721 0.0000
vt 0.0020 0.8404 0.0000
vt 0.3414 0.8117 0.0000
vt 0.3414 0.8404 0.0000
vt 0.6869 0.8968 0.0000
vt 0.6869 0.8117 0.0000
vt 0.8333 0.8117 0.0000
vt 0.8333 0.8968 0.0000
vt 0.9973 0.8968 0.0000
vt 0.8509 0.8968 0.0000
vt 0.8509 0.8117 0.0000
vt 0.9973 0.8117 0.0000
vt 0.5230 0.9144 0.0000
vt 0.6693 0.9144 0.0000
vt 0.6693 0.9663 0.0000
vt 0.5230 0.9663 0.0000
vt 0.8842 0.3619 0.0000
vt 0.9694 0.3619 0.0000
vt 0.9694 0.4139 0.0000
vt 0.8842 0.4139 0.0000
vt 0.3590 0.9144 0.0000
vt 0.5054 0.9144 0.0000
vt 0.5054 0.9663 0.0000
vt 0.3590 0.9663 0.0000
vt 0.8917 0.0020 0.0000
vt 0.9768 0.0020 0.0000
vt 0.9768 0.0539 0.0000
vt 0.8917 0.0539 0.0000
vt 0.5230 0.8968 0.0000
vt 0.5230 0.8117 0.0000
vt 0.6693 0.8117 0.0000
vt 0.6693 0.8968 0.0000
vt 0.5054 0.8968 0.0000
vt 0.3590 0.8968 0.0000
vt 0.3590 0.8117 0.0000
vt 0.5054 0.8117 0.0000
vt 0.0020 0.9678 0.0000
vt 0.1484 0.9678 0.0000
vt 0.1484 0.9709 0.0000
vt 0.0020 0.9709 0.0000
vt 0.5230 0.9839 0.0000
vt 0.6081 0.9839 0.0000
vt 0.6081 0.9871 0.0000
vt 0.5230 0.9871 0.0000
vt 0.0020 0.9885 0.0000
vt 0.1484 0.9885 0.0000
vt 0.1484 0.9917 0.0000
vt 0.0020 0.9917 0.0000
vt 0.3590 0.9839 0.0000
vt 0.4442 0.9839 0.0000
vt 0.4442 0.9871 0.0000
vt 0.3590 0.9871 0.0000
vt 0.9357 0.9903 0.0000
vt 0.9357 0.9775 0.0000
vt 0.9567 0.9775 0.0000
vt 0.9567 0.9903 0.0000
vt 0.9954 0.9272 0.0000
vt 0.9743 0.9272 0.0000
vt 0.9743 0.9144 0.0000
vt 0.9954 0.9144 0.0000
vt 0.7256 0.9667 0.0000
vt 0.7466 0.9667 0.0000
vt 0.7466 0.9842 0.0000
vt 0.7256 0.9842 0.0000
vt 0.8203 0.9667 0.0000
vt 0.8203 0.9795 0.0000
vt 0.8028 0.9795 0.0000
vt 0.8028 0.9667 0.0000
vt 0.8104 0.9144 0.0000
vt 0.8314 0.9144 0.0000
vt 0.8314 0.9319 0.0000
vt 0.8104 0.9319 0.0000
vt 0.9017 0.5249 0.0000
vt 0.9017 0.5377 0.0000
vt 0.8842 0.5377 0.0000
vt 0.8842 0.5249 0.0000
vt 0.9303 0.1123 0.0000
vt 0.9303 0.0995 0.0000
vt 0.9513 0.0995 0.0000
vt 0.9513 0.1123 0.0000
vt 0.9052 0.5073 0.0000
vt 0.8842 0.5073 0.0000
vt 0.8842 0.4945 0.0000
vt 0.9052 0.4945 0.0000
vt 0.7718 0.9144 0.0000
vt 0.7928 0.9144 0.0000
vt 0.7928 0.9319 0.0000
vt 0.7718 0.9319 0.0000
vt 0.9918 0.9775 0.0000
vt 0.9918 0.9903 0.0000
vt 0.9743 0.9903 0.0000
vt 0.9743 0.9775 0.0000
vt 0.8917 0.0995 0.0000
vt 0.9127 0.0995 0.0000
vt 0.9127 0.1170 0.0000
vt 0.8917 0.1170 0.0000
vt 0.9478 0.1626 0.0000
vt 0.9478 0.1754 0.0000
vt 0.9303 0.1754 0.0000
vt 0.9303 0.1626 0.0000
vt 0.6869 0.9491 0.0000
vt 0.6869 0.9144 0.0000
vt 0.7542 0.9144 0.0000
vt 0.7542 0.9491 0.0000
vt 0.9181 0.9491 0.0000
vt 0.8509 0.9491 0.0000
vt 0.8509 0.9144 0.0000
vt 0.9181 0.9144 0.0000
vt 0.8842 0.7653 0.0000
vt 0.9514 0.7653 0.0000
vt 0.9514 0.7729 0.0000
vt 0.8842 0.7729 0.0000
vt 0.4618 0.9839 0.0000
vt 0.4965 0.9839 0.0000
vt 0.4965 0.9915 0.0000
vt 0.4618 0.9915 0.0000
vt 0.8842 0.7190 0.0000
vt 0.9514 0.7190 0.0000
vt 0.9514 0.7266 0.0000
vt 0.8842 0.7266 0.0000
vt 0.1660 0.9885 0.0000
vt 0.2007 0.9885 0.0000
vt 0.2007 0.9961 0.0000
vt 0.1660 0.9961 0.0000
vt 0.8917 0.1754 0.0000
vt 0.8917 0.1626 0.0000
vt 0.9127 0.1626 0.0000
vt 0.9127 0.1754 0.0000
vt 0.9899 0.1129 0.0000
vt 0.9689 0.1129 0.0000
vt 0.9689 0.1001 0.0000
vt 0.9899 0.1001 0.0000
vt 0.8509 0.9667 0.0000
vt 0.8719 0.9667 0.0000
vt 0.8719 0.9842 0.0000
vt 0.8509 0.9842 0.0000
vt 0.9092 0.1930 0.0000
vt 0.9092 0.2058 0.0000
vt 0.8917 0.2058 0.0000
vt 0.8917 0.1930 0.0000
vt 0.9357 0.9144 0.0000
vt 0.9567 0.9144 0.0000
vt 0.9567 0.9319 0.0000
vt 0.9357 0.9319 0.0000
vt 0.9017 0.5553 0.0000
vt 0.9017 0.5681 0.0000
vt 0.8842 0.5681 0.0000
vt 0.8842 0.5553 0.0000
vt 0.9228 0.4722 0.0000
vt 0.9228 0.4594 0.0000
vt 0.9439 0.4594 0.0000
vt 0.9439 0.4722 0.0000
vt 0.7852 0.9795 0.0000
vt 0.7642 0.9795 0.0000
vt 0.7642 0.9667 0.0000
vt 0.7852 0.9667 0.0000
vt 0.6869 0.9667 0.0000
vt 0.7080 0.9667 0.0000
vt 0.7080 0.9842 0.0000
vt 0.6869 0.9842 0.0000
vt 0.9790 0.4594 0.0000
vt 0.9790 0.4722 0.0000
vt 0.9615 0.4722 0.0000
vt 0.9615 0.4594 0.0000
vt 0.8842 0.4594 0.0000
vt 0.9052 0.4594 0.0000
vt 0.9052 0.4769 0.0000
vt 0.8842 0.4769 0.0000
vt 0.9403 0.4945 0.0000
vt 0.9403 0.5073 0.0000
vt 0.9228 0.5073 0.0000
vt 0.9228 0.4945 0.0000
vt 0.8946 0.7924 0.0000
vt 0.8842 0.7924 0.0000
vt 0.8842 0.7905 0.0000
vt 0.8946 0.7905 0.0000
vt 0.2183 0.9904 0.0000
vt 0.2183 0.9885 0.0000
vt 0.2287 0.9885 0.0000
vt 0.2287 0.9904 0.0000
vt 0.1660 0.9696 0.0000
vt 0.1660 0.9678 0.0000
vt 0.2006 0.9678 0.0000
vt 0.2006 0.9696 0.0000
vt 0.8917 0.0819 0.0000
vt 0.8917 0.0715 0.0000
vt 0.9262 0.0715 0.0000
vt 0.9262 0.0819 0.0000
vt 0.9272 0.7442 0.0000
vt 0.9272 0.7461 0.0000
vt 0.8926 0.7461 0.0000
vt 0.8926 0.7442 0.0000
vt 0.8842 0.4418 0.0000
vt 0.8842 0.4315 0.0000
vt 0.9188 0.4315 0.0000
vt 0.9188 0.4418 0.0000
vt 0.2089 0.9678 0.0000
vt 0.2090 0.9696 0.0000
vt 0.9346 0.0715 0.0000
vt 0.9346 0.0819 0.0000
vt 0.8842 0.7461 0.0000
vt 0.8842 0.7442 0.0000
vt 0.9272 0.4315 0.0000
vt 0.9272 0.4418 0.0000
vt 0.9579 0.5051 0.0000
vt 0.9579 0.4945 0.0000
vt 0.9768 0.4945 0.0000
vt 0.9768 0.5051 0.0000
vt 0.9382 0.5355 0.0000
vt 0.9193 0.5355 0.0000
vt 0.9193 0.5249 0.0000
vt 0.9382 0.5249 0.0000
vt 0.9690 0.7653 0.0000
vt 0.9879 0.7653 0.0000
vt 0.9879 0.7709 0.0000
vt 0.9690 0.7709 0.0000
vt 0.9448 0.4315 0.0000
vt 0.9554 0.4315 0.0000
vt 0.9554 0.4371 0.0000
vt 0.9448 0.4371 0.0000
vt 0.9690 0.7190 0.0000
vt 0.9879 0.7190 0.0000
vt 0.9879 0.7246 0.0000
vt 0.9690 0.7246 0.0000
vt 0.9522 0.0715 0.0000
vt 0.9628 0.0715 0.0000
vt 0.9628 0.0771 0.0000
vt 0.9522 0.0771 0.0000
# 288 texture coords

g Box010
usemtl wire_115115115
s 2
f 1/1/1 2/2/1 3/3/1 4/4/1 
s 4
f 5/5/2 6/6/2 7/7/2 8/8/2 
s 8
f 1/9/3 4/10/3 9/11/3 10/12/3 
s 16
f 4/13/4 3/14/4 11/15/4 9/16/4 
s 32
f 3/17/5 2/18/5 12/19/5 11/20/5 
s 64
f 2/21/6 1/22/6 10/23/6 12/24/6 
s off
f 10/12/3 9/11/3 6/25/3 5/26/3 
f 9/16/4 11/15/4 7/27/4 6/28/4 
f 11/20/5 12/19/5 8/29/5 7/30/5 
f 12/24/6 10/23/6 5/31/6 8/32/6 
s 2
f 13/33/1 14/34/1 15/35/1 16/36/1 
f 14/34/1 17/37/1 18/38/1 15/35/1 
s 4
f 19/39/7 20/40/7 21/41/8 22/42/9 
f 22/42/9 21/41/8 23/43/10 24/44/10 
s 8
f 13/45/4 16/46/4 20/47/4 19/48/4 
s 16
f 16/49/5 15/50/5 21/51/5 20/52/5 
f 15/50/5 18/53/5 23/54/5 21/51/5 
s 32
f 18/55/6 17/56/6 24/57/6 23/58/6 
s 64
f 17/59/3 14/60/3 22/61/3 24/62/3 
f 14/60/3 13/63/3 19/64/3 22/61/3 
s 2
f 25/65/1 26/66/1 27/67/1 28/68/1 
s 4
f 29/69/2 30/70/2 31/71/2 32/72/2 
s 8
f 25/73/4 28/74/4 30/75/4 29/76/4 
s 16
f 28/77/5 27/78/5 31/79/5 30/80/5 
s 32
f 27/81/6 26/82/6 32/83/6 31/84/6 
s 64
f 26/85/3 25/86/3 29/87/3 32/88/3 
s 2
f 33/89/1 34/90/1 35/91/1 36/92/1 
s 4
f 37/93/2 38/94/2 39/95/2 40/96/2 
s 8
f 33/97/4 36/98/4 38/99/4 37/100/4 
s 16
f 36/101/5 35/102/5 39/103/5 38/104/5 
s 32
f 35/105/6 34/106/6 40/107/6 39/108/6 
s 64
f 34/109/3 33/110/3 37/111/3 40/112/3 
s 2
f 41/113/1 42/114/1 43/115/1 44/116/1 
s 4
f 45/117/2 46/118/2 47/119/2 48/120/2 
s 8
f 41/121/4 44/122/4 46/123/4 45/124/4 
s 16
f 44/125/5 43/126/5 47/127/5 46/128/5 
s 32
f 43/129/11 42/130/11 48/131/11 47/132/11 
s 64
f 42/133/3 41/134/3 45/135/3 48/136/3 
s 2
f 49/137/1 50/138/1 51/139/1 52/140/1 
s 4
f 53/141/2 54/142/2 55/143/2 56/144/2 
s 8
f 49/145/12 52/146/12 54/147/12 53/148/12 
s 16
f 52/149/5 51/150/5 55/151/5 54/152/5 
s 32
f 51/153/6 50/154/6 56/155/6 55/156/6 
s 64
f 50/157/3 49/158/3 53/159/3 56/160/3 
s 2
f 57/161/1 58/162/1 59/163/1 60/164/1 
s 4
f 61/165/2 62/166/2 63/167/2 64/168/2 
s 8
f 57/169/4 60/170/4 62/171/4 61/172/4 
s 16
f 60/173/13 59/174/13 63/175/13 62/176/13 
s 32
f 59/177/6 58/178/6 64/179/6 63/180/6 
s 64
f 58/181/14 57/182/14 61/183/14 64/184/14 
s 2
f 65/185/1 66/186/1 67/187/1 68/188/1 
s 4
f 69/189/2 70/190/2 71/191/2 72/192/2 
s 8
f 65/193/12 68/194/12 70/195/12 69/196/12 
s 16
f 68/197/5 67/198/5 71/199/5 70/200/5 
s 32
f 67/201/11 66/202/11 72/203/11 71/204/11 
s 64
f 66/205/3 65/206/3 69/207/3 72/208/3 
s 2
f 73/209/1 74/210/1 75/211/1 76/212/1 
s 4
f 77/213/2 78/214/2 79/215/2 80/216/2 
s 8
f 73/217/12 76/218/12 78/219/12 77/220/12 
s 16
f 76/221/5 75/222/5 79/223/5 78/224/5 
s 32
f 75/225/11 74/226/11 80/227/11 79/228/11 
s 64
f 74/229/3 73/230/3 77/231/3 80/232/3 
s 2
f 81/233/6 82/234/6 83/235/6 84/236/6 
s 4
f 85/237/4 86/238/4 87/239/4 88/240/4 
s 8
f 81/241/3 84/242/3 89/243/3 90/244/3 
s 16
f 84/245/1 83/246/1 91/247/1 89/248/1 
s 32
f 83/249/5 82/250/5 92/251/5 91/252/5 
s 64
f 82/253/2 81/254/2 90/255/2 92/256/2 
s off
f 90/244/3 89/243/3 86/257/3 85/258/3 
f 89/248/1 91/247/1 87/259/1 86/260/1 
f 91/252/5 92/251/5 88/261/5 87/262/5 
f 92/256/2 90/255/2 85/263/2 88/264/2 
s 2
f 93/265/1 94/266/1 95/267/1 96/268/1 
s 4
f 97/269/2 98/270/2 99/271/2 100/272/2 
s 8
f 93/273/4 96/274/4 98/275/4 97/276/4 
s 16
f 96/277/5 95/278/5 99/279/5 98/280/5 
s 32
f 95/281/6 94/282/6 100/283/6 99/284/6 
s 64
f 94/285/3 93/286/3 97/287/3 100/288/3 
# 78 polygons

