# Blender v2.78 (sub 0) OBJ File: 'shrooms.blend'
# www.blender.org
mtllib shroom2.mtl
o Shroom6_Cylinder.004
v 0.361816 0.649401 -0.000000
v 0.412961 0.000000 0.012961
v 0.418329 0.000000 0.000000
v 0.412961 -0.000000 -0.012961
v 0.400000 -0.000000 -0.018329
v 0.387039 -0.000000 -0.012961
v 0.381671 -0.000000 0.000000
v 0.387039 -0.000000 0.012961
v 0.400000 0.000000 0.018329
v 0.378914 0.642810 -0.000000
v 0.394904 0.607422 -0.000000
v 0.437203 0.552745 0.000000
v 0.437148 0.541243 0.000000
v 0.421500 0.531197 0.000000
v 0.387326 0.556956 0.000000
v 0.404044 0.247853 0.000000
v 0.374238 0.642200 0.011385
v 0.386953 0.606384 0.019357
v 0.419127 0.550385 0.044010
v 0.419521 0.538941 0.040666
v 0.408756 0.529534 0.031027
v 0.383455 0.556450 0.009424
v 0.400147 0.247853 0.009407
v 0.374238 0.642200 -0.011385
v 0.386953 0.606384 -0.019357
v 0.419127 0.550385 -0.044010
v 0.419521 0.538941 -0.040666
v 0.408756 0.529534 -0.031027
v 0.383455 0.556450 -0.009424
v 0.400147 0.247853 -0.009407
v 0.362949 0.640726 -0.016101
v 0.367760 0.603878 -0.027374
v 0.375488 0.544688 -0.062239
v 0.376963 0.533385 -0.057510
v 0.377990 0.525517 -0.043878
v 0.374111 0.555230 -0.013327
v 0.390740 0.247853 -0.013304
v 0.351660 0.639252 -0.011385
v 0.348566 0.601372 -0.019357
v 0.331848 0.538990 -0.044010
v 0.334406 0.527829 -0.040666
v 0.347225 0.521500 -0.031027
v 0.364767 0.554010 -0.009424
v 0.381333 0.247853 -0.009407
v 0.346984 0.638642 -0.000000
v 0.340616 0.600334 0.000000
v 0.313772 0.536630 0.000000
v 0.316778 0.525527 0.000000
v 0.334481 0.519836 0.000000
v 0.360896 0.553505 0.000000
v 0.377436 0.247853 0.000000
v 0.351660 0.639252 0.011385
v 0.348566 0.601372 0.019357
v 0.331848 0.538990 0.044010
v 0.334406 0.527829 0.040666
v 0.347225 0.521500 0.031027
v 0.364767 0.554010 0.009424
v 0.381333 0.247853 0.009407
v 0.362949 0.640726 0.016101
v 0.367760 0.603878 0.027374
v 0.375488 0.544688 0.062239
v 0.376963 0.533385 0.057510
v 0.377991 0.525517 0.043878
v 0.374111 0.555230 0.013327
v 0.390740 0.247853 0.013304
vt 0.5014 0.9895
vt 0.5014 0.8671
vt 0.6229 0.8671
vt 0.5014 0.7448
vt 0.6229 0.7448
vt 0.5014 0.6224
vt 0.6229 0.6224
vt 0.5014 0.5000
vt 0.6229 0.5000
vt 0.5014 0.3776
vt 0.6229 0.3776
vt 0.5014 0.2552
vt 0.6229 0.2552
vt 0.5014 0.1329
vt 0.6229 0.1329
vt 0.5014 0.0105
vt 0.6229 0.0105
vt 0.6229 0.9895
vt 0.7444 0.8671
vt 0.7444 0.7448
vt 0.7444 0.6224
vt 0.7444 0.5000
vt 0.7444 0.3776
vt 0.7444 0.2552
vt 0.7444 0.1329
vt 0.7444 0.0105
vt 0.7444 0.9895
vt 0.8658 0.8671
vt 0.8658 0.7448
vt 0.8658 0.6224
vt 0.8658 0.5000
vt 0.8658 0.3776
vt 0.8658 0.2552
vt 0.8658 0.1329
vt 0.8658 0.0105
vt 0.8658 0.9895
vt 0.9873 0.8671
vt 0.9873 0.7448
vt 0.9873 0.6224
vt 0.9873 0.5000
vt 0.9873 0.3776
vt 0.9873 0.2552
vt 0.9873 0.1329
vt 0.9873 0.0105
vt 0.0155 0.9895
vt 0.0155 0.8671
vt 0.1370 0.8671
vt 0.0155 0.7448
vt 0.1370 0.7448
vt 0.0155 0.6224
vt 0.1370 0.6224
vt 0.0155 0.5000
vt 0.1370 0.5000
vt 0.0155 0.3776
vt 0.1370 0.3776
vt 0.0155 0.2552
vt 0.1370 0.2552
vt 0.0155 0.1329
vt 0.1370 0.1329
vt 0.0155 0.0105
vt 0.1370 0.0105
vt 0.1370 0.9895
vt 0.2585 0.8671
vt 0.2585 0.7448
vt 0.2585 0.6224
vt 0.2585 0.5000
vt 0.2585 0.3776
vt 0.2585 0.2552
vt 0.2585 0.1329
vt 0.2585 0.0105
vt 0.2585 0.9895
vt 0.3799 0.8671
vt 0.3799 0.7448
vt 0.3799 0.6224
vt 0.3799 0.5000
vt 0.3799 0.3776
vt 0.3799 0.2552
vt 0.3799 0.1329
vt 0.3799 0.0105
vt 0.3799 0.9895
vn -0.1294 0.9916 0.0000
vn 0.4899 0.6586 0.5711
vn 0.7245 0.6892 0.0000
vn 0.5860 0.4909 0.6446
vn 0.8508 0.5255 0.0000
vn 0.6679 0.2045 0.7156
vn 0.9577 0.2876 0.0000
vn 0.6581 -0.5003 0.5626
vn 0.8970 -0.4419 0.0000
vn 0.1178 -0.9929 0.0143
vn 0.1115 -0.9937 0.0000
vn 0.2344 -0.9681 0.0884
vn 0.2559 -0.9667 0.0000
vn 0.7074 0.0425 0.7055
vn 0.9984 0.0558 0.0000
vn 0.7108 0.0468 0.7018
vn 0.9983 0.0575 0.0000
vn 0.4899 0.6586 -0.5711
vn 0.5860 0.4909 -0.6446
vn 0.6679 0.2045 -0.7156
vn 0.6581 -0.5003 -0.5626
vn 0.1178 -0.9929 -0.0143
vn 0.2344 -0.9681 -0.0884
vn 0.7074 0.0425 -0.7055
vn 0.7108 0.0468 -0.7018
vn -0.0763 0.5847 -0.8076
vn -0.0532 0.4075 -0.9116
vn -0.0102 0.0784 -0.9969
vn 0.0792 -0.6067 -0.7910
vn 0.1294 -0.9914 -0.0204
vn 0.1483 -0.9756 -0.1619
vn 0.0020 0.0103 -0.9999
vn 0.0090 0.0206 -0.9997
vn -0.6426 0.5108 -0.5711
vn -0.6924 0.3240 -0.6446
vn -0.6980 0.0261 -0.7156
vn -0.5076 -0.6525 -0.5626
vn 0.1410 -0.9899 -0.0143
vn 0.0080 -0.9896 -0.1434
vn -0.7059 -0.0222 -0.7079
vn -0.7025 -0.0060 -0.7116
vn -0.8772 0.4801 0.0000
vn -0.9572 0.2894 0.0000
vn -0.9995 0.0321 0.0000
vn -0.7535 -0.6574 0.0000
vn 0.1474 -0.9891 0.0000
vn -0.0681 -0.9977 0.0000
vn -0.9994 -0.0357 0.0000
vn -0.9998 -0.0171 0.0000
vn -0.6426 0.5108 0.5711
vn -0.6924 0.3240 0.6446
vn -0.6980 0.0261 0.7156
vn -0.5076 -0.6525 0.5626
vn 0.1410 -0.9899 0.0143
vn 0.0080 -0.9896 0.1434
vn -0.7059 -0.0222 0.7079
vn -0.7025 -0.0060 0.7116
vn -0.0763 0.5847 0.8076
vn -0.0532 0.4075 0.9116
vn -0.0102 0.0784 0.9969
vn 0.0792 -0.6066 0.7910
vn 0.1294 -0.9914 0.0204
vn 0.1484 -0.9756 0.1619
vn 0.0020 0.0103 0.9999
vn 0.0090 0.0206 0.9997
usemtl Shroom
s 1
f 1/1/1 17/2/2 10/3/3
f 17/2/2 18/4/4 11/5/5 10/3/3
f 18/4/4 19/6/6 12/7/7 11/5/5
f 19/6/6 20/8/8 13/9/9 12/7/7
f 20/8/8 21/10/10 14/11/11 13/9/9
f 21/10/10 22/12/12 15/13/13 14/11/11
f 22/12/12 23/14/14 16/15/15 15/13/13
f 23/14/14 2/16/16 3/17/17 16/15/15
f 1/18/1 10/3/3 24/19/18
f 10/3/3 11/5/5 25/20/19 24/19/18
f 11/5/5 12/7/7 26/21/20 25/20/19
f 12/7/7 13/9/9 27/22/21 26/21/20
f 13/9/9 14/11/11 28/23/22 27/22/21
f 14/11/11 15/13/13 29/24/23 28/23/22
f 15/13/13 16/15/15 30/25/24 29/24/23
f 16/15/15 3/17/17 4/26/25 30/25/24
f 1/27/1 24/19/18 31/28/26
f 24/19/18 25/20/19 32/29/27 31/28/26
f 25/20/19 26/21/20 33/30/28 32/29/27
f 26/21/20 27/22/21 34/31/29 33/30/28
f 27/22/21 28/23/22 35/32/30 34/31/29
f 28/23/22 29/24/23 36/33/31 35/32/30
f 29/24/23 30/25/24 37/34/32 36/33/31
f 30/25/24 4/26/25 5/35/33 37/34/32
f 1/36/1 31/28/26 38/37/34
f 31/28/26 32/29/27 39/38/35 38/37/34
f 32/29/27 33/30/28 40/39/36 39/38/35
f 33/30/28 34/31/29 41/40/37 40/39/36
f 34/31/29 35/32/30 42/41/38 41/40/37
f 35/32/30 36/33/31 43/42/39 42/41/38
f 36/33/31 37/34/32 44/43/40 43/42/39
f 37/34/32 5/35/33 6/44/41 44/43/40
f 1/45/1 38/46/34 45/47/42
f 38/46/34 39/48/35 46/49/43 45/47/42
f 39/48/35 40/50/36 47/51/44 46/49/43
f 40/50/36 41/52/37 48/53/45 47/51/44
f 41/52/37 42/54/38 49/55/46 48/53/45
f 42/54/38 43/56/39 50/57/47 49/55/46
f 43/56/39 44/58/40 51/59/48 50/57/47
f 44/58/40 6/60/41 7/61/49 51/59/48
f 1/62/1 45/47/42 52/63/50
f 45/47/42 46/49/43 53/64/51 52/63/50
f 46/49/43 47/51/44 54/65/52 53/64/51
f 47/51/44 48/53/45 55/66/53 54/65/52
f 48/53/45 49/55/46 56/67/54 55/66/53
f 49/55/46 50/57/47 57/68/55 56/67/54
f 50/57/47 51/59/48 58/69/56 57/68/55
f 51/59/48 7/61/49 8/70/57 58/69/56
f 1/71/1 52/63/50 59/72/58
f 52/63/50 53/64/51 60/73/59 59/72/58
f 53/64/51 54/65/52 61/74/60 60/73/59
f 54/65/52 55/66/53 62/75/61 61/74/60
f 55/66/53 56/67/54 63/76/62 62/75/61
f 56/67/54 57/68/55 64/77/63 63/76/62
f 57/68/55 58/69/56 65/78/64 64/77/63
f 58/69/56 8/70/57 9/79/65 65/78/64
f 2/16/16 23/14/14 65/78/64 9/79/65
f 23/14/14 22/12/12 64/77/63 65/78/64
f 22/12/12 21/10/10 63/76/62 64/77/63
f 21/10/10 20/8/8 62/75/61 63/76/62
f 20/8/8 19/6/6 61/74/60 62/75/61
f 19/6/6 18/4/4 60/73/59 61/74/60
f 18/4/4 17/2/2 59/72/58 60/73/59
f 17/2/2 1/80/1 59/72/58
